REM MD5 67e81a023d66ec24c18512882b1eaa73
FILE "Devil's Deception (Europe) (En,Fr,De).bin" BINARY
  TRACK 01 MODE2/2352
    INDEX 01 00:00:00
  TRACK 02 AUDIO
    INDEX 00 39:34:61
    INDEX 01 39:36:61
  TRACK 03 AUDIO
    INDEX 00 39:54:45
    INDEX 01 39:56:45
REM LEADOUT 43:36:73
